<svg width="96" height="68" viewBox="0 0 96 68" fill="none" xmlns="http://www.w3.org/2000/svg">
<path d="M64.4703 48.0168C54.9403 54.8188 33.2969 64.141 7.93188 48.2336" stroke="black" stroke-width="2" stroke-miterlimit="10" stroke-linecap="round" stroke-linejoin="round"/>
<path d="M64.8587 57.5107L57.5148 52.0999" stroke="black" stroke-width="2" stroke-miterlimit="10" stroke-linecap="round" stroke-linejoin="round"/>
<path d="M51.7516 61.955L46.4853 56.0022" stroke="black" stroke-width="2" stroke-miterlimit="10" stroke-linecap="round" stroke-linejoin="round"/>
<path d="M7.64282 57.5107L14.9868 52.0999" stroke="black" stroke-width="2" stroke-miterlimit="10" stroke-linecap="round" stroke-linejoin="round"/>
<path d="M20.7589 61.955L26.0252 56.0022" stroke="black" stroke-width="2" stroke-miterlimit="10" stroke-linecap="round" stroke-linejoin="round"/>
<path d="M38.3103 66.3993V57.2217" stroke="black" stroke-width="2" stroke-miterlimit="10" stroke-linecap="round" stroke-linejoin="round"/>
<path d="M7.2092 42.1C7.2092 42.1 14.4899 31.8926 30.7225 31.8926" stroke="black" stroke-width="2" stroke-miterlimit="10" stroke-linecap="round" stroke-linejoin="round"/>
<path d="M3.95728 14.4768C1.4822 16.1389 0.777617 19.3186 1.05764 22.0375C1.25637 23.9977 1.7532 25.8043 3.53272 26.2199C7.59764 27.1774 51.9955 6.78056 66.8279 9.11111C82.5185 11.1165 91.118 21.36 91.118 21.36C91.118 21.36 81.019 4.63067 60.7035 1.36971C54.7416 0.412193 43.8747 1.34261 32.8633 3.83575" stroke="black" stroke-width="2" stroke-miterlimit="10" stroke-linecap="round" stroke-linejoin="round"/>
<path d="M29.5392 3.19434L26.3143 14.1064" stroke="black" stroke-width="2" stroke-miterlimit="10" stroke-linecap="round" stroke-linejoin="round"/>
<path d="M25.1942 4.91968L21.9694 15.8227" stroke="black" stroke-width="2" stroke-miterlimit="10" stroke-linecap="round" stroke-linejoin="round"/>
<path d="M20.8493 6.63599L17.6245 17.548" stroke="black" stroke-width="2" stroke-miterlimit="10" stroke-linecap="round" stroke-linejoin="round"/>
<path d="M16.5043 8.35229L13.2795 19.2643" stroke="black" stroke-width="2" stroke-miterlimit="10" stroke-linecap="round" stroke-linejoin="round"/>
<path d="M12.1684 10.0776L8.94357 20.9806" stroke="black" stroke-width="2" stroke-miterlimit="10" stroke-linecap="round" stroke-linejoin="round"/>
<path d="M7.82346 11.7939L4.59863 22.706" stroke="black" stroke-width="2" stroke-miterlimit="10" stroke-linecap="round" stroke-linejoin="round"/>
<path d="M74.6687 24.9643C76.8738 24.9643 78.6614 23.1767 78.6614 20.9717C78.6614 18.7666 76.8738 16.979 74.6687 16.979C72.4636 16.979 70.6761 18.7666 70.6761 20.9717C70.6761 23.1767 72.4636 24.9643 74.6687 24.9643Z" stroke="black" stroke-width="2" stroke-miterlimit="10" stroke-linecap="round" stroke-linejoin="round"/>
<path d="M90.6303 9.83368C92.8353 9.83368 94.6229 8.04611 94.6229 5.84104C94.6229 3.63596 92.8353 1.84839 90.6303 1.84839C88.4252 1.84839 86.6376 3.63596 86.6376 5.84104C86.6376 8.04611 88.4252 9.83368 90.6303 9.83368Z" stroke="black" stroke-width="2" stroke-miterlimit="10" stroke-linecap="round" stroke-linejoin="round"/>
<path d="M79.2304 16.4819L77.5051 18.1802" stroke="black" stroke-width="2" stroke-miterlimit="10" stroke-linecap="round" stroke-linejoin="round"/>
<path d="M87.5048 8.33447L85.5536 10.2495" stroke="black" stroke-width="2" stroke-miterlimit="10" stroke-linecap="round" stroke-linejoin="round"/>
</svg>
