<svg width="61" height="68" viewBox="0 0 61 68" fill="none" xmlns="http://www.w3.org/2000/svg">
<path d="M30.1858 32.71L14.7158 19.07C12.5958 17.17 11.2658 14.42 11.2658 11.35C11.2658 5.63 15.8958 1 21.6158 1C25.1858 1 28.3258 2.8 30.1858 5.55C32.0558 2.8 35.1958 1 38.7658 1C44.4858 1 49.1158 5.63 49.1158 11.35C49.1158 14.42 47.7858 17.17 45.6658 19.07L30.1858 32.71Z" stroke="black" stroke-width="2" stroke-miterlimit="10" stroke-linecap="round" stroke-linejoin="round"/>
<path d="M10.4858 66.18L11.3858 61.43C11.7058 59.72 11.2758 57.95 10.2058 56.58L2.56584 46.84C1.29584 45.22 0.765836 43.14 1.09584 41.11L4.18584 22.31C4.40584 20.96 5.65584 20.03 7.01584 20.19C8.29584 20.35 9.25584 21.43 9.25584 22.72V33.44" stroke="black" stroke-width="2" stroke-miterlimit="10" stroke-linecap="round" stroke-linejoin="round"/>
<path d="M23.4258 66.14V54.18C23.4258 51.96 22.6658 49.8 21.2658 48.07L18.2858 44.38C17.1958 43.03 16.3258 41.5 15.7258 39.86L13.8558 34.73C13.3658 33.38 11.9058 32.64 10.5258 33.04C9.08584 33.46 8.25584 34.97 8.66584 36.41C9.53584 39.46 11.1058 44.42 12.8058 47.02" stroke="black" stroke-width="2" stroke-miterlimit="10" stroke-linecap="round" stroke-linejoin="round"/>
<path d="M49.8958 66.18L48.9958 61.43C48.6758 59.72 49.1058 57.95 50.1758 56.58L57.8158 46.84C59.0858 45.22 59.6158 43.14 59.2858 41.11L56.1958 22.31C55.9758 20.96 54.7258 20.03 53.3658 20.19C52.0858 20.35 51.1258 21.43 51.1258 22.72V33.44" stroke="black" stroke-width="2" stroke-miterlimit="10" stroke-linecap="round" stroke-linejoin="round"/>
<path d="M36.9558 66.14V54.18C36.9558 51.96 37.7158 49.8 39.1158 48.07L42.0958 44.38C43.1858 43.03 44.0558 41.5 44.6558 39.86L46.5258 34.73C47.0158 33.38 48.4758 32.64 49.8558 33.04C51.2958 33.46 52.1258 34.97 51.7158 36.41C50.8458 39.46 49.2758 44.42 47.5758 47.02" stroke="black" stroke-width="2" stroke-miterlimit="10" stroke-linecap="round" stroke-linejoin="round"/>
</svg>
