<svg width="52" height="74" viewBox="0 0 52 74" fill="none" xmlns="http://www.w3.org/2000/svg">
<path d="M13.5021 72.8583C20.0838 72.8583 25.4194 67.5227 25.4194 60.941C25.4194 54.3592 20.0838 49.0237 13.5021 49.0237C6.92034 49.0237 1.58478 54.3592 1.58478 60.941C1.58478 67.5227 6.92034 72.8583 13.5021 72.8583Z" stroke="black" stroke-width="2" stroke-miterlimit="10" stroke-linecap="round" stroke-linejoin="round"/>
<path d="M8.06178 59.3902L8.05292 59.3813" stroke="black" stroke-width="2" stroke-miterlimit="10" stroke-linecap="round" stroke-linejoin="round"/>
<path d="M14.1578 66.2218L14.1489 66.2129" stroke="black" stroke-width="2" stroke-miterlimit="10" stroke-linecap="round" stroke-linejoin="round"/>
<path d="M22.3182 2.08984C22.2828 2.10756 22.2474 2.13415 22.2119 2.15187" stroke="black" stroke-width="2" stroke-miterlimit="10" stroke-linecap="round" stroke-linejoin="round"/>
<path d="M4.49102 53.1436C2.24932 48.2084 1 42.7238 1 36.9467C1 26.3231 5.22643 16.6918 12.0933 9.64771" stroke="black" stroke-width="2" stroke-miterlimit="10" stroke-linecap="round" stroke-linejoin="round"/>
<path d="M25.189 6.0415C25.0473 6.11239 24.9144 6.17441 24.7726 6.24529" stroke="black" stroke-width="2" stroke-miterlimit="10" stroke-linecap="round" stroke-linejoin="round"/>
<path d="M9.21361 49.83C7.23773 45.6036 6.13904 40.8898 6.13904 35.9191C6.13904 27.2625 9.47943 19.3855 14.9552 13.5022" stroke="black" stroke-width="2" stroke-miterlimit="10" stroke-linecap="round" stroke-linejoin="round"/>
<path d="M16.1336 66.4609C20.6356 66.4609 24.2852 62.8113 24.2852 58.3093C24.2852 53.8073 20.6356 50.1577 16.1336 50.1577C11.6316 50.1577 7.98203 53.8073 7.98203 58.3093C7.98203 62.8113 11.6316 66.4609 16.1336 66.4609Z" stroke="black" stroke-width="2" stroke-miterlimit="10" stroke-linecap="round" stroke-linejoin="round"/>
<path d="M18.6234 14.5742C22.3719 14.5742 25.4105 11.5355 25.4105 7.7871C25.4105 4.03869 22.3719 1 18.6234 1C14.875 1 11.8363 4.03869 11.8363 7.7871C11.8363 11.5355 14.875 14.5742 18.6234 14.5742Z" stroke="black" stroke-width="2" stroke-miterlimit="10" stroke-linecap="round" stroke-linejoin="round"/>
<path d="M20.1297 10.9325C22.6939 10.9325 24.7726 8.85379 24.7726 6.2896C24.7726 3.72541 22.6939 1.64673 20.1297 1.64673C17.5655 1.64673 15.4868 3.72541 15.4868 6.2896C15.4868 8.85379 17.5655 10.9325 20.1297 10.9325Z" stroke="black" stroke-width="2" stroke-miterlimit="10" stroke-linecap="round" stroke-linejoin="round"/>
<path d="M43.796 14.6451C47.4905 14.6451 50.4856 11.6501 50.4856 7.95551C50.4856 4.26092 47.4905 1.26587 43.796 1.26587C40.1014 1.26587 37.1063 4.26092 37.1063 7.95551C37.1063 11.6501 40.1014 14.6451 43.796 14.6451Z" stroke="black" stroke-width="2" stroke-miterlimit="10" stroke-linecap="round" stroke-linejoin="round"/>
<path d="M43.7959 4.73901C42.0238 4.73901 40.5796 6.17441 40.5796 7.95536" stroke="black" stroke-width="2" stroke-miterlimit="10" stroke-linecap="round" stroke-linejoin="round"/>
<path d="M43.796 73.0001C47.4905 73.0001 50.4856 70.0051 50.4856 66.3105C50.4856 62.6159 47.4905 59.6208 43.796 59.6208C40.1014 59.6208 37.1063 62.6159 37.1063 66.3105C37.1063 70.0051 40.1014 73.0001 43.796 73.0001Z" stroke="black" stroke-width="2" stroke-miterlimit="10" stroke-linecap="round" stroke-linejoin="round"/>
<path d="M43.7959 63.103C42.0238 63.103 40.5796 64.5384 40.5796 66.3194" stroke="black" stroke-width="2" stroke-miterlimit="10" stroke-linecap="round" stroke-linejoin="round"/>
<path d="M41.1644 60.1613V14.1135" stroke="black" stroke-width="2" stroke-miterlimit="10" stroke-linecap="round" stroke-linejoin="round"/>
<path d="M46.4187 60.1613V14.1135" stroke="black" stroke-width="2" stroke-miterlimit="10" stroke-linecap="round" stroke-linejoin="round"/>
</svg>
