<svg width="68" height="91" viewBox="0 0 68 91" fill="none" xmlns="http://www.w3.org/2000/svg">
<path d="M6.50515 17.3708C16.9253 -6.63946 46.6093 -0.974123 55.5288 13.5349C63.5716 26.6191 62.5346 43.8006 47.0224 57.0618C33.4408 68.6707 33.601 90 18.5861 90C1.25292 89.9916 1 73.8976 1 73.8976" stroke="black" stroke-width="2" stroke-miterlimit="10" stroke-linecap="round" stroke-linejoin="round"/>
<path d="M46.3564 29.0471C46.6936 18.4161 35.599 11.4525 26.0978 14.9596C16.5965 18.4667 14.5058 30.5477 20.1795 38.8855C20.1795 38.8855 25.103 37.1741 26.6373 41.2208C28.0368 44.8965 24.9259 47.5184 22.1776 47.0547" stroke="black" stroke-width="2" stroke-miterlimit="10" stroke-linecap="round" stroke-linejoin="round"/>
<path d="M17.4227 27.0829C17.4227 27.0829 30.9285 20.4564 38.6003 33.684C44.0548 43.0925 39.241 52.2734 32.016 55.2831C24.6224 57.5087 23.0712 57.8038 21.3008 62.6092C19.2269 68.2493 16.8663 71.8491 10.9734 69.1851C4.52398 65.737 9.55702 58.8998 9.55702 58.8998" stroke="black" stroke-width="2" stroke-miterlimit="10" stroke-linecap="round" stroke-linejoin="round"/>
<path d="M18.8391 83.3229C20.8644 83.3229 22.5063 81.681 22.5063 79.6556C22.5063 77.6302 20.8644 75.9883 18.8391 75.9883C16.8137 75.9883 15.1718 77.6302 15.1718 79.6556C15.1718 81.681 16.8137 83.3229 18.8391 83.3229Z" stroke="black" stroke-width="2" stroke-miterlimit="10" stroke-linecap="round" stroke-linejoin="round"/>
<path d="M52.9912 17.1264C53.4043 15.6594 54.3486 14.4792 55.5626 13.7457C56.8946 12.9364 58.5385 12.6582 60.1572 13.1134C63.2512 13.9818 65.0469 17.1938 64.1786 20.2794C63.6137 22.3027 62.0541 23.7612 60.1741 24.2839" stroke="black" stroke-width="2" stroke-miterlimit="10" stroke-linecap="round" stroke-linejoin="round"/>
<path d="M54.7195 23.9381C55.3096 21.8389 56.9873 20.3299 58.9769 19.8577C59.9043 19.6386 60.8991 19.647 61.8855 19.9252C64.9711 20.7935 66.7752 24.0056 65.9068 27.0912C65.2324 29.5023 63.1332 31.121 60.7811 31.298" stroke="black" stroke-width="2" stroke-miterlimit="10" stroke-linecap="round" stroke-linejoin="round"/>
<path d="M55.2085 30.8344C55.9082 28.3558 58.1002 26.7119 60.5366 26.6107C61.1436 26.577 61.7506 26.6444 62.366 26.8215C65.4516 27.6898 67.2557 30.8934 66.3874 33.9874C65.5781 36.8538 62.7623 38.6074 59.8874 38.1521" stroke="black" stroke-width="2" stroke-miterlimit="10" stroke-linecap="round" stroke-linejoin="round"/>
</svg>
