<svg width="95" height="69" viewBox="0 0 95 69" fill="none" xmlns="http://www.w3.org/2000/svg">
<path d="M28.3135 49.1721C38.0732 56.1513 60.2502 65.6876 86.2351 49.3955" stroke="black" stroke-width="2" stroke-miterlimit="10" stroke-linecap="round" stroke-linejoin="round"/>
<path d="M27.9004 58.8982L35.4267 53.3484" stroke="black" stroke-width="2" stroke-miterlimit="10" stroke-linecap="round" stroke-linejoin="round"/>
<path d="M41.3447 63.4433L46.7382 57.3574" stroke="black" stroke-width="2" stroke-miterlimit="10" stroke-linecap="round" stroke-linejoin="round"/>
<path d="M86.5254 58.8982L78.999 53.3484" stroke="black" stroke-width="2" stroke-miterlimit="10" stroke-linecap="round" stroke-linejoin="round"/>
<path d="M73.0917 63.4433L67.6982 57.3574" stroke="black" stroke-width="2" stroke-miterlimit="10" stroke-linecap="round" stroke-linejoin="round"/>
<path d="M55.1025 67.999V58.5967" stroke="black" stroke-width="2" stroke-miterlimit="10" stroke-linecap="round" stroke-linejoin="round"/>
<path d="M86.9723 43.1087C86.9723 43.1087 79.5129 32.6455 62.8857 32.6455" stroke="black" stroke-width="2" stroke-miterlimit="10" stroke-linecap="round" stroke-linejoin="round"/>
<path d="M90.3111 14.8122C92.846 16.5207 93.5718 19.7703 93.2815 22.5619C93.0693 24.5719 92.5668 26.4256 90.7466 26.8499C86.5815 27.8214 41.0884 6.9174 25.8905 9.30707C9.81051 11.3617 1 21.8584 1 21.8584C1 21.8584 11.3515 4.71756 32.1662 1.37873C38.2744 0.396058 49.4076 1.35639 60.6859 3.9024" stroke="black" stroke-width="2" stroke-miterlimit="10" stroke-linecap="round" stroke-linejoin="round"/>
<path d="M64.1025 3.24365L67.3967 14.4215" stroke="black" stroke-width="2" stroke-miterlimit="10" stroke-linecap="round" stroke-linejoin="round"/>
<path d="M68.5479 5.00806L71.8532 16.1859" stroke="black" stroke-width="2" stroke-miterlimit="10" stroke-linecap="round" stroke-linejoin="round"/>
<path d="M72.9912 6.77222L76.2965 17.9501" stroke="black" stroke-width="2" stroke-miterlimit="10" stroke-linecap="round" stroke-linejoin="round"/>
<path d="M77.4473 8.53662L80.7526 19.7145" stroke="black" stroke-width="2" stroke-miterlimit="10" stroke-linecap="round" stroke-linejoin="round"/>
<path d="M81.8906 10.301L85.196 21.4789" stroke="black" stroke-width="2" stroke-miterlimit="10" stroke-linecap="round" stroke-linejoin="round"/>
<path d="M86.3467 12.0542L89.6408 23.232" stroke="black" stroke-width="2" stroke-miterlimit="10" stroke-linecap="round" stroke-linejoin="round"/>
</svg>
