<svg width="105" height="67" viewBox="0 0 105 67" fill="none" xmlns="http://www.w3.org/2000/svg">
<path d="M52.1876 4.68528C58.8815 4.68528 60.5464 -1.41342 70.4406 2.08018C78.877 5.06483 94.4989 20.8507 103.375 21.5322C103.375 21.5322 95.2494 26.0436 78.8079 22.8088C58.847 18.8839 60.4687 24.767 52.1876 24.767" stroke="black" stroke-width="2" stroke-miterlimit="10" stroke-linecap="round" stroke-linejoin="round"/>
<path d="M91.1606 31.7886C92.3079 30.5896 93.5587 29.3733 94.9647 28.1915C99.3986 24.4392 103.384 21.5408 103.384 21.5408" stroke="black" stroke-width="2" stroke-miterlimit="10" stroke-linecap="round" stroke-linejoin="round"/>
<path d="M55.1723 46.1254C62.0991 46.4186 70.0956 47.333 78.23 43.7187C81.0767 42.4506 83.2849 40.458 85.4674 38.103" stroke="black" stroke-width="2" stroke-miterlimit="10" stroke-linecap="round" stroke-linejoin="round"/>
<path d="M14.1808 15.123C9.29836 18.5045 4.59711 21.2562 1 21.5323C1 21.5323 9.12584 26.0438 25.5673 22.809C45.5282 18.8841 43.9065 24.7671 52.1876 24.7671" stroke="black" stroke-width="2" stroke-miterlimit="10" stroke-linecap="round" stroke-linejoin="round"/>
<path d="M52.1876 4.68528C45.4937 4.68528 43.8289 -1.41342 33.9347 2.08018C30.1996 3.39998 25.067 7.22137 19.7274 11.1376" stroke="black" stroke-width="2" stroke-miterlimit="10" stroke-linecap="round" stroke-linejoin="round"/>
<path d="M1 21.5408C1 21.5408 1 21.5408 1.00863 21.5494C1.25016 21.7219 5.11468 24.5599 9.4105 28.1915C16.5271 34.204 19.6756 40.8461 26.1366 43.7186C34.2625 47.333 42.2675 46.4186 49.1943 46.1253" stroke="black" stroke-width="2" stroke-miterlimit="10" stroke-linecap="round" stroke-linejoin="round"/>
<path d="M52.1876 65.9999C56.5801 65.9999 60.1409 62.4391 60.1409 58.0466C60.1409 53.6541 56.5801 50.0933 52.1876 50.0933C47.7951 50.0933 44.2343 53.6541 44.2343 58.0466C44.2343 62.4391 47.7951 65.9999 52.1876 65.9999Z" stroke="black" stroke-width="2" stroke-miterlimit="10" stroke-linecap="round" stroke-linejoin="round"/>
<path d="M55.5518 60.8501C55.7157 60.6603 55.8537 60.4533 55.9831 60.229" stroke="black" stroke-width="2" stroke-miterlimit="10" stroke-linecap="round" stroke-linejoin="round"/>
<path d="M56.5611 58.0468C56.5611 55.6315 54.6029 53.6733 52.1876 53.6733" stroke="black" stroke-width="2" stroke-miterlimit="10" stroke-linecap="round" stroke-linejoin="round"/>
<path d="M49.1943 50.6714V37.9995C49.1943 36.3519 50.5314 35.0149 52.1876 35.0149C53.0071 35.0149 53.7576 35.3513 54.301 35.8861C54.8358 36.4296 55.1723 37.1801 55.1723 37.9995V50.6714" stroke="black" stroke-width="2" stroke-miterlimit="10" stroke-linecap="round" stroke-linejoin="round"/>
</svg>
