<svg width="43" height="74" viewBox="0 0 43 74" fill="none" xmlns="http://www.w3.org/2000/svg">
<path d="M36.857 73H5.20165C2.88084 73 1 71.1082 1 68.7874V5.20165C1 2.88084 2.88084 1 5.20165 1H36.857C39.1778 1 41.0587 2.88084 41.0587 5.20165V68.7874C41.0697 71.1082 39.1888 73 36.857 73Z" stroke="black" stroke-width="2" stroke-miterlimit="10" stroke-linecap="round" stroke-linejoin="round"/>
<path d="M1.15381 8.44641H40.9155" stroke="black" stroke-width="2" stroke-miterlimit="10" stroke-linecap="round" stroke-linejoin="round"/>
<path d="M1.15381 58.1622H40.9155" stroke="black" stroke-width="2" stroke-miterlimit="10" stroke-linecap="round" stroke-linejoin="round"/>
<path d="M15.9587 4.76166H21.5573" stroke="black" stroke-width="2" stroke-miterlimit="10" stroke-linecap="round" stroke-linejoin="round"/>
<path d="M24.9451 4.76166H26.111" stroke="black" stroke-width="2" stroke-miterlimit="10" stroke-linecap="round" stroke-linejoin="round"/>
<path d="M21.0293 69.1724C23.0035 69.1724 24.604 67.5719 24.604 65.5977C24.604 63.6234 23.0035 62.0229 21.0293 62.0229C19.055 62.0229 17.4546 63.6234 17.4546 65.5977C17.4546 67.5719 19.055 69.1724 21.0293 69.1724Z" stroke="black" stroke-width="2" stroke-miterlimit="10" stroke-linecap="round" stroke-linejoin="round"/>
</svg>
