<svg width="48" height="77" viewBox="0 0 48 77" fill="none" xmlns="http://www.w3.org/2000/svg">
<path d="M26.2387 2.57461L32.0762 13.9201L44.678 15.9654C46.7 16.2902 47.5065 18.7687 46.0621 20.2245L37.0712 29.284L39.021 41.8927C39.334 43.914 37.2276 45.4419 35.3981 44.5276L24 38.7766L12.6018 44.5155C10.7723 45.4419 8.66595 43.914 8.97889 41.8807L10.9287 29.272L1.93777 20.2124C0.493432 18.7566 1.29985 16.2782 3.32192 15.9534L15.9237 13.908L21.7612 2.56258C22.7001 0.745858 25.2999 0.745858 26.2387 2.57461Z" stroke="black" stroke-width="2" stroke-miterlimit="10" stroke-linecap="round" stroke-linejoin="round"/>
<path d="M15.0812 30.6074L15.5145 27.7801L12.1443 24.3752" stroke="black" stroke-width="2" stroke-miterlimit="10" stroke-linecap="round" stroke-linejoin="round"/>
<path d="M14.4433 34.6981L14.4553 34.686" stroke="black" stroke-width="2" stroke-miterlimit="10" stroke-linecap="round" stroke-linejoin="round"/>
<path d="M28.4052 16.4587V16.4467" stroke="black" stroke-width="2" stroke-miterlimit="10" stroke-linecap="round" stroke-linejoin="round"/>
<path d="M31.5105 18.1912L37.7452 19.2018" stroke="black" stroke-width="2" stroke-miterlimit="10" stroke-linecap="round" stroke-linejoin="round"/>
<path d="M40.8385 64.6799H7.16144V75.7968H40.8385V64.6799Z" stroke="black" stroke-width="2" stroke-miterlimit="10" stroke-linecap="round" stroke-linejoin="round"/>
<path d="M34.6399 64.6199H13.36L14.3711 58.0267H33.6289L34.6399 64.6199Z" stroke="black" stroke-width="2" stroke-miterlimit="10" stroke-linecap="round" stroke-linejoin="round"/>
<path d="M26.8645 40.1963L28.8987 57.9785H19.1013L21.1354 40.1963" stroke="black" stroke-width="2" stroke-miterlimit="10" stroke-linecap="round" stroke-linejoin="round"/>
<path d="M14.8766 68.6141H33.1113" stroke="black" stroke-width="2" stroke-miterlimit="10" stroke-linecap="round" stroke-linejoin="round"/>
<path d="M17.9097 72.0671H30.0902" stroke="black" stroke-width="2" stroke-miterlimit="10" stroke-linecap="round" stroke-linejoin="round"/>
</svg>
