<svg width="63" height="54" viewBox="0 0 63 54" fill="none" xmlns="http://www.w3.org/2000/svg">
<path d="M14.37 8.89995L10.59 2.11995C10.06 1.15995 8.84997 0.819949 7.88997 1.34995C6.92997 1.88995 6.58997 3.09995 7.11997 4.05995L10.88 10.8399C11.42 11.8099 12.63 12.1499 13.6 11.6099C14.56 11.0699 14.9 9.85995 14.37 8.89995Z" stroke="black" stroke-width="2" stroke-miterlimit="10" stroke-linecap="round" stroke-linejoin="round"/>
<path d="M52.29 38.04L44.13 24.66C43.67 23.91 42.85 23.44 41.96 23.44H17.85L6.16998 2.51001C5.44998 1.22001 3.84998 0.610009 2.52998 1.26001C1.11998 1.95001 0.589982 3.67001 1.33998 5.03001L13.4 26.71C14.15 28.05 15.56 28.88 17.1 28.88H40.33L47.7 41C48.5 42.32 50.26 42.73 51.57 41.84C52.8 41.02 53.07 39.31 52.29 38.04Z" stroke="black" stroke-width="2" stroke-miterlimit="10" stroke-linecap="round" stroke-linejoin="round"/>
<path d="M13.83 16.23H36.45C37.85 16.23 38.99 17.36 38.99 18.77V23.45" stroke="black" stroke-width="2" stroke-miterlimit="10" stroke-linecap="round" stroke-linejoin="round"/>
<path d="M24.32 28.89C24.34 31.46 26.42 33.53 28.98 33.53C31.55 33.53 33.62 31.46 33.64 28.89" stroke="black" stroke-width="2" stroke-miterlimit="10" stroke-linecap="round" stroke-linejoin="round"/>
<path d="M28.98 39.03C27.43 39.03 26.18 40.28 26.18 41.83V47.55H31.78V41.83C31.78 40.29 30.53 39.03 28.98 39.03Z" stroke="black" stroke-width="2" stroke-miterlimit="10" stroke-linecap="round" stroke-linejoin="round"/>
<path d="M28.98 33.53V39.03" stroke="black" stroke-width="2" stroke-miterlimit="10" stroke-linecap="round" stroke-linejoin="round"/>
<path d="M28.33 53H34.52C36.01 53 37.22 51.79 37.22 50.3C37.22 48.81 36.01 47.6 34.52 47.6H23.12C21.63 47.6 20.42 48.81 20.42 50.3C20.42 51.79 21.63 53 23.12 53H24.85" stroke="black" stroke-width="2" stroke-miterlimit="10" stroke-linecap="round" stroke-linejoin="round"/>
<path d="M52.28 41.12H59.56C60.09 41.12 60.58 40.9 60.94 40.55C61.3 40.19 61.52 39.7 61.52 39.16C61.52 38.09 60.64 37.21 59.57 37.21H51.8" stroke="black" stroke-width="2" stroke-miterlimit="10" stroke-linecap="round" stroke-linejoin="round"/>
</svg>
