<svg width="90" height="62" viewBox="0 0 90 62" fill="none" xmlns="http://www.w3.org/2000/svg">
<path d="M67.4487 61H7.74629C4.02451 61 1 57.9755 1 54.2537V20.6943C1 16.9725 4.02451 13.948 7.74629 13.948H67.4487C71.1704 13.948 74.195 16.9725 74.195 20.6943V54.2446C74.204 57.9755 71.1795 61 67.4487 61Z" stroke="black" stroke-width="2" stroke-miterlimit="10" stroke-linecap="round" stroke-linejoin="round"/>
<path d="M35.7998 13.948L67.1587 1.47872C70.6179 0.102299 74.5389 1.79566 75.9244 5.25483L88.3212 36.4326C89.6977 39.9009 88.0043 43.8219 84.5451 45.1983L74.2038 49.3095" stroke="black" stroke-width="2" stroke-miterlimit="10" stroke-linecap="round" stroke-linejoin="round"/>
<path d="M59.3985 53.9096C58.6107 54.625 57.5693 55.0597 56.4284 55.0597C53.9743 55.0597 51.9912 53.0765 51.9912 50.6225C51.9912 48.1775 53.9743 46.1944 56.4284 46.1944C57.5693 46.1944 58.6107 46.6291 59.3985 47.3444" stroke="black" stroke-width="2" stroke-miterlimit="10" stroke-linecap="round" stroke-linejoin="round"/>
<path d="M59.3984 53.9096C60.1863 54.625 61.2186 55.0597 62.3686 55.0597C64.8136 55.0597 66.7967 53.0765 66.7967 50.6225C66.7967 48.1775 64.8136 46.1944 62.3686 46.1944C61.2186 46.1944 60.1863 46.6291 59.3984 47.3444" stroke="black" stroke-width="2" stroke-miterlimit="10" stroke-linecap="round" stroke-linejoin="round"/>
<path d="M7.7644 41.8749H25.3319" stroke="black" stroke-width="2" stroke-miterlimit="10" stroke-linecap="round" stroke-linejoin="round"/>
<path d="M7.7644 52.1166H35.2748" stroke="black" stroke-width="2" stroke-miterlimit="10" stroke-linecap="round" stroke-linejoin="round"/>
<path d="M1.36206 22.9672H73.9594" stroke="black" stroke-width="2" stroke-miterlimit="10" stroke-linecap="round" stroke-linejoin="round"/>
<path d="M1.36206 31.7963H73.9594" stroke="black" stroke-width="2" stroke-miterlimit="10" stroke-linecap="round" stroke-linejoin="round"/>
</svg>
