<svg width="72" height="67" viewBox="0 0 72 67" fill="none" xmlns="http://www.w3.org/2000/svg">
<path d="M4.69236 1C9.66667 12.6819 10.9035 17.6563 10.9035 22.9826C10.9035 32.5882 1 40.8667 1 66" stroke="black" stroke-width="2" stroke-miterlimit="10" stroke-linecap="round" stroke-linejoin="round"/>
<path d="M67.1375 1C62.1632 12.6819 60.9264 17.6563 60.9264 22.9826C60.9264 32.5882 70.8299 40.8757 70.8299 66" stroke="black" stroke-width="2" stroke-miterlimit="10" stroke-linecap="round" stroke-linejoin="round"/>
<path d="M35.9917 47.2222C38.6841 47.2222 40.8667 45.0396 40.8667 42.3472C40.8667 39.6548 38.6841 37.4722 35.9917 37.4722C33.2993 37.4722 31.1167 39.6548 31.1167 42.3472C31.1167 45.0396 33.2993 47.2222 35.9917 47.2222Z" stroke="black" stroke-width="2" stroke-miterlimit="10" stroke-linecap="round" stroke-linejoin="round"/>
<path d="M35.9917 22.4138C38.006 22.4138 39.6389 20.7809 39.6389 18.7666C39.6389 16.7523 38.006 15.1194 35.9917 15.1194C33.9774 15.1194 32.3444 16.7523 32.3444 18.7666C32.3444 20.7809 33.9774 22.4138 35.9917 22.4138Z" stroke="black" stroke-width="2" stroke-miterlimit="10" stroke-linecap="round" stroke-linejoin="round"/>
<path d="M26.7382 34.3125C28.4354 30.9271 31.9382 28.5979 35.9917 28.5979C40.0451 28.5979 43.5479 30.918 45.2451 34.3125" stroke="black" stroke-width="2" stroke-miterlimit="10" stroke-linecap="round" stroke-linejoin="round"/>
<path d="M45.5431 47.8271L48.4229 49.4883" stroke="black" stroke-width="2" stroke-miterlimit="10" stroke-linecap="round" stroke-linejoin="round"/>
<path d="M41.5076 51.8716L43.1688 54.7424" stroke="black" stroke-width="2" stroke-miterlimit="10" stroke-linecap="round" stroke-linejoin="round"/>
<path d="M35.9917 53.3433V56.6655" stroke="black" stroke-width="2" stroke-miterlimit="10" stroke-linecap="round" stroke-linejoin="round"/>
<path d="M30.4667 51.8716L28.8146 54.7424" stroke="black" stroke-width="2" stroke-miterlimit="10" stroke-linecap="round" stroke-linejoin="round"/>
<path d="M26.4313 47.8271L23.5604 49.4883" stroke="black" stroke-width="2" stroke-miterlimit="10" stroke-linecap="round" stroke-linejoin="round"/>
<path d="M35.9285 33.0667V37.4632" stroke="black" stroke-width="2" stroke-miterlimit="10" stroke-linecap="round" stroke-linejoin="round"/>
</svg>
