<svg width="66" height="52" viewBox="0 0 66 52" fill="none" xmlns="http://www.w3.org/2000/svg">
<path d="M31.9467 25.4634L26.557 20.11L13.087 33.4896L18.4766 38.843L31.9467 25.4634Z" stroke="black" stroke-width="2" stroke-miterlimit="10" stroke-linecap="round" stroke-linejoin="round"/>
<path d="M39.0332 20.3044L36.9788 18.2638C36.5819 17.8696 36.5819 17.2435 36.9788 16.8493L44.8228 9.05798C45.2197 8.66378 45.85 8.66378 46.2468 9.05798L48.3012 11.0986C48.6981 11.4928 48.6981 12.1189 48.3012 12.5131L40.4572 20.3044C40.0604 20.687 39.43 20.687 39.0332 20.3044Z" stroke="black" stroke-width="2" stroke-miterlimit="10" stroke-linecap="round" stroke-linejoin="round"/>
<path d="M16.7882 37.1788L14.7578 35.162L7.04886 42.8192L9.07927 44.8359L16.7882 37.1788Z" stroke="black" stroke-width="2" stroke-miterlimit="10" stroke-linecap="round" stroke-linejoin="round"/>
<path d="M1.16724 50.6812L7.99571 43.8986" stroke="black" stroke-width="2" stroke-miterlimit="10" stroke-linecap="round" stroke-linejoin="round"/>
<path d="M24.4307 12.3623L48.4879 36.2695" stroke="black" stroke-width="2" stroke-miterlimit="10" stroke-linecap="round" stroke-linejoin="round"/>
<path d="M45.7215 1.83484L64.4327 20.4319" stroke="black" stroke-width="2" stroke-miterlimit="10" stroke-linecap="round" stroke-linejoin="round"/>
<path d="M29.1581 12.0492L24.1039 17.0695" stroke="black" stroke-width="2" stroke-miterlimit="10" stroke-linecap="round" stroke-linejoin="round"/>
<path d="M29.3099 22.7276L33.7455 18.3334" stroke="black" stroke-width="2" stroke-miterlimit="10" stroke-linecap="round" stroke-linejoin="round"/>
<path d="M47.274 10.0898L50.4606 6.92456" stroke="black" stroke-width="2" stroke-miterlimit="10" stroke-linecap="round" stroke-linejoin="round"/>
<path d="M34.7376 22.542L38.0176 19.2841" stroke="black" stroke-width="2" stroke-miterlimit="10" stroke-linecap="round" stroke-linejoin="round"/>
<path d="M45.7215 26.9363L43.6672 24.8957C43.2703 24.5015 43.2703 23.8754 43.6672 23.4812L51.5111 15.6899C51.908 15.2957 52.5383 15.2957 52.9352 15.6899L54.9896 17.7305C55.3864 18.1247 55.3864 18.7508 54.9896 19.145L47.1456 26.9363C46.7371 27.3305 46.1067 27.3305 45.7215 26.9363Z" stroke="black" stroke-width="2" stroke-miterlimit="10" stroke-linecap="round" stroke-linejoin="round"/>
<path d="M53.9624 16.7217L57.1374 13.5565" stroke="black" stroke-width="2" stroke-miterlimit="10" stroke-linecap="round" stroke-linejoin="round"/>
<path d="M41.4143 29.1856L44.6943 25.9276" stroke="black" stroke-width="2" stroke-miterlimit="10" stroke-linecap="round" stroke-linejoin="round"/>
<path d="M46.5619 34.0434L63.3705 17.3594" stroke="black" stroke-width="2" stroke-miterlimit="10" stroke-linecap="round" stroke-linejoin="round"/>
<path d="M53.262 7.33044C55.0219 7.33044 56.4486 5.91332 56.4486 4.16522C56.4486 2.41712 55.0219 1 53.262 1C51.5021 1 50.0754 2.41712 50.0754 4.16522C50.0754 5.91332 51.5021 7.33044 53.262 7.33044Z" stroke="black" stroke-width="2" stroke-miterlimit="10" stroke-linecap="round" stroke-linejoin="round"/>
<path d="M50.0754 4.16516H48.1845" stroke="black" stroke-width="2" stroke-miterlimit="10" stroke-linecap="round" stroke-linejoin="round"/>
<path d="M59.4719 4.16516H56.4487" stroke="black" stroke-width="2" stroke-miterlimit="10" stroke-linecap="round" stroke-linejoin="round"/>
</svg>
