<svg width="69" height="77" viewBox="0 0 69 77" fill="none" xmlns="http://www.w3.org/2000/svg">
<path d="M14.4457 1C14.4457 1 13.6855 12.5656 12.1752 16.7012C9.63093 23.6548 4.62356 27.0606 2.31248 35.7778C0.0926124 44.1708 10.229 48.7118 16.0168 49.1781C21.0445 49.5836 21.8959 59.0002 34.9009 59.0002C47.9058 59.0002 48.7471 49.5836 53.7849 49.1781C59.5626 48.7118 69.699 44.1708 67.4893 35.7778C65.1883 27.0606 60.1708 23.6446 57.6266 16.7012C56.1163 12.5656 55.356 1 55.356 1" stroke="black" stroke-width="2" stroke-miterlimit="10" stroke-linecap="round" stroke-linejoin="round"/>
<path d="M24.5618 69.5015C23.4468 67.6668 22.798 65.5179 22.798 63.217C22.798 60.6525 23.5988 58.2603 24.9672 56.304" stroke="black" stroke-width="2" stroke-miterlimit="10" stroke-linecap="round" stroke-linejoin="round"/>
<path d="M44.8244 56.304C46.1928 58.2603 46.9936 60.6525 46.9936 63.217C46.9936 65.5179 46.355 67.6668 45.24 69.5015" stroke="black" stroke-width="2" stroke-miterlimit="10" stroke-linecap="round" stroke-linejoin="round"/>
<path d="M26.4775 75.34C28.213 75.34 29.6198 73.9331 29.6198 72.1977C29.6198 70.4623 28.213 69.0554 26.4775 69.0554C24.7421 69.0554 23.3353 70.4623 23.3353 72.1977C23.3353 73.9331 24.7421 75.34 26.4775 75.34Z" stroke="black" stroke-width="2" stroke-miterlimit="10" stroke-linecap="round" stroke-linejoin="round"/>
<path d="M43.3242 75.34C45.0596 75.34 46.4664 73.9331 46.4664 72.1977C46.4664 70.4623 45.0596 69.0554 43.3242 69.0554C41.5887 69.0554 40.1819 70.4623 40.1819 72.1977C40.1819 73.9331 41.5887 75.34 43.3242 75.34Z" stroke="black" stroke-width="2" stroke-miterlimit="10" stroke-linecap="round" stroke-linejoin="round"/>
</svg>
