<svg width="14" height="17" viewBox="0 0 14 17" fill="none" xmlns="http://www.w3.org/2000/svg">
<g clip-path="url(#clip0)">
<path d="M2.91108 5.9865C3.7813 9.0665 5.47172 11.4965 8.27243 13.1165C8.37245 12.8965 8.45247 12.6965 8.5525 12.4965C8.83257 11.9265 9.17265 11.4065 9.66277 10.9965C9.7928 10.8865 9.95284 10.7965 10.1129 10.7165C10.2529 10.6465 10.393 10.6565 10.543 10.7365C10.9231 10.9465 11.2532 11.2265 11.5732 11.5265C12.1334 12.0465 12.6435 12.6065 13.0236 13.2665C13.2037 13.5765 13.3437 13.8965 13.3337 14.2665C13.3337 14.4765 13.2637 14.6565 13.0936 14.7965C12.5935 15.1965 12.1134 15.6265 11.6133 16.0265C11.3332 16.2565 11.0131 16.4265 10.653 16.5165C10.1729 16.6365 9.72279 16.5365 9.28268 16.3665C8.62251 16.1065 8.02236 15.7365 7.44222 15.3465C6.79205 14.9165 6.13189 14.4865 5.51173 14.0165C5.05162 13.6665 4.64152 13.2565 4.23141 12.8565C2.92109 11.5765 1.95084 10.0565 1.30068 8.3465C1.01061 7.5865 0.730539 6.8365 0.490479 6.0665C0.310434 5.4565 0.180401 4.8365 0.0503688 4.2065C-0.109671 3.4165 0.0903788 2.7265 0.660521 2.1565C1.10063 1.7165 1.60076 1.3565 2.12089 1.0165C2.27092 0.9165 2.43096 0.8165 2.591 0.7165C2.90108 0.5065 3.22116 0.5265 3.53124 0.7165C3.88133 0.9365 4.14139 1.2565 4.36145 1.5965C4.85157 2.3265 5.21166 3.1265 5.55174 3.9365C5.58175 4.0065 5.60176 4.0665 5.63176 4.1365C5.7718 4.4065 5.70178 4.6465 5.51173 4.8665C5.30168 5.0965 5.04162 5.2465 4.76155 5.3765C4.22141 5.6365 3.64127 5.8065 3.06112 5.9465C3.02111 5.9565 2.9811 5.9665 2.91108 5.9865Z" fill="black"/>
</g>
<defs>
<clipPath id="clip0">
<rect width="13.3333" height="16" fill="white" transform="translate(0 0.566406)"/>
</clipPath>
</defs>
</svg>
