<svg width="61" height="91" viewBox="0 0 61 91" fill="none" xmlns="http://www.w3.org/2000/svg">
<path d="M30.2694 53.3592C44.728 53.3592 56.449 41.6382 56.449 27.1796C56.449 12.721 44.728 1 30.2694 1C15.8108 1 4.08984 12.721 4.08984 27.1796C4.08984 41.6382 15.8108 53.3592 30.2694 53.3592Z" stroke="black" stroke-width="2" stroke-miterlimit="10" stroke-linecap="round" stroke-linejoin="round"/>
<path d="M30.2694 53.3592C44.728 53.3592 56.449 41.6382 56.449 27.1796C56.449 12.721 44.728 1 30.2694 1C15.8108 1 4.08984 12.721 4.08984 27.1796C4.08984 41.6382 15.8108 53.3592 30.2694 53.3592Z" stroke="black" stroke-width="2" stroke-miterlimit="10" stroke-linecap="round" stroke-linejoin="round"/>
<path d="M53.6213 38.9961C57.3292 43.9024 59.5295 50.0073 59.5295 56.6271C59.5295 64.9416 56.0651 72.4416 50.494 77.7692" stroke="black" stroke-width="2" stroke-miterlimit="10" stroke-linecap="round" stroke-linejoin="round"/>
<path d="M6.9082 38.9866C3.20036 43.8929 1 49.9977 1 56.6269C1 64.9415 4.4644 72.4414 10.0355 77.7691" stroke="black" stroke-width="2" stroke-miterlimit="10" stroke-linecap="round" stroke-linejoin="round"/>
<path d="M49.2581 45.1851C51.2712 48.5277 52.4323 52.4416 52.4323 56.6269C52.4323 63.0782 49.6795 68.8834 45.2787 72.9377" stroke="black" stroke-width="2" stroke-miterlimit="10" stroke-linecap="round" stroke-linejoin="round"/>
<path d="M11.2715 45.1851C9.25836 48.5277 8.09732 52.4416 8.09732 56.6269C8.09732 63.0782 10.8501 68.8834 15.2602 72.9283" stroke="black" stroke-width="2" stroke-miterlimit="10" stroke-linecap="round" stroke-linejoin="round"/>
<path d="M17.9943 89.7543C22.7621 89.7543 26.6272 85.8892 26.6272 81.1214C26.6272 76.3536 22.7621 72.4885 17.9943 72.4885C13.2264 72.4885 9.36136 76.3536 9.36136 81.1214C9.36136 85.8892 13.2264 89.7543 17.9943 89.7543Z" stroke="black" stroke-width="2" stroke-miterlimit="10" stroke-linecap="round" stroke-linejoin="round"/>
<path d="M21.6459 84.1646C21.8238 83.9586 21.9736 83.7339 22.1141 83.4905" stroke="black" stroke-width="2" stroke-miterlimit="10" stroke-linecap="round" stroke-linejoin="round"/>
<path d="M22.7414 81.1214C22.7414 78.4997 20.616 76.3743 17.9943 76.3743" stroke="black" stroke-width="2" stroke-miterlimit="10" stroke-linecap="round" stroke-linejoin="round"/>
<path d="M42.5353 89.7543C47.3031 89.7543 51.1682 85.8892 51.1682 81.1214C51.1682 76.3536 47.3031 72.4885 42.5353 72.4885C37.7675 72.4885 33.9024 76.3536 33.9024 81.1214C33.9024 85.8892 37.7675 89.7543 42.5353 89.7543Z" stroke="black" stroke-width="2" stroke-miterlimit="10" stroke-linecap="round" stroke-linejoin="round"/>
<path d="M46.187 84.1646C46.3649 83.9586 46.5147 83.7339 46.6551 83.4905" stroke="black" stroke-width="2" stroke-miterlimit="10" stroke-linecap="round" stroke-linejoin="round"/>
<path d="M47.2824 81.1214C47.2824 78.4997 45.157 76.3743 42.5353 76.3743" stroke="black" stroke-width="2" stroke-miterlimit="10" stroke-linecap="round" stroke-linejoin="round"/>
<path d="M31.9923 27.1794H28.5373" stroke="black" stroke-width="2" stroke-miterlimit="10" stroke-linecap="round" stroke-linejoin="round"/>
<path d="M30.2695 25.4475V28.9025" stroke="black" stroke-width="2" stroke-miterlimit="10" stroke-linecap="round" stroke-linejoin="round"/>
</svg>
