<svg width="62" height="63" viewBox="0 0 62 63" fill="none" xmlns="http://www.w3.org/2000/svg">
<path d="M44.74 61.007C43.57 61.007 42.41 61.007 41.24 61.007C41.17 60.997 41.09 60.977 41.02 60.977C40 60.937 38.97 60.907 37.95 60.857C36.89 60.807 35.82 60.757 34.76 60.687C33.7 60.617 32.63 60.537 31.57 60.457C31.01 60.417 30.44 60.377 29.88 60.297C29.34 60.227 28.8 60.097 28.26 59.997C24.95 59.377 21.63 58.767 18.32 58.147C18.04 58.097 17.75 58.037 17.48 57.987C17.43 57.607 17.45 33.587 17.5 33.397C17.84 33.397 18.18 33.397 18.52 33.397C18.98 33.407 19.41 33.297 19.82 33.087C20.25 32.867 20.63 32.587 20.98 32.267C21.63 31.687 22.18 31.017 22.69 30.317C23.7 28.927 24.53 27.427 25.3 25.887C26.25 23.997 27.07 22.047 27.85 20.077C28.13 19.357 28.53 18.707 29.06 18.137C29.36 17.817 29.68 17.507 30.01 17.217C30.49 16.807 30.99 16.417 31.49 16.027C32.72 15.077 33.65 13.887 34.29 12.477C34.58 11.847 34.81 11.197 35.01 10.537C35.69 8.237 35.99 5.867 36.2 3.487C36.25 2.947 36.29 2.407 36.32 1.867C36.34 1.537 36.51 1.317 36.8 1.197C37.03 1.107 37.28 1.047 37.52 1.017C38.33 0.946998 39.11 1.097 39.87 1.397C42.03 2.247 43.42 3.807 44.05 6.037C44.5 7.637 44.59 9.267 44.42 10.917C44.25 12.607 43.75 14.187 42.98 15.687C42.43 16.747 41.91 17.817 41.39 18.887C40.88 19.937 40.43 21.007 40.13 22.147C39.99 22.697 39.88 23.257 39.91 23.827C39.93 24.207 39.99 24.567 40.19 24.907C40.35 24.907 40.51 24.907 40.67 24.907C41.81 24.877 42.95 24.837 44.09 24.827C46.78 24.797 49.47 24.777 52.16 24.917C53.2 24.967 54.24 25.057 55.27 25.217C56.15 25.347 56.91 25.697 57.54 26.327C57.59 26.377 57.64 26.417 57.68 26.467C58.45 27.247 59.09 28.127 59.61 29.097C59.87 29.587 60.09 30.107 60.23 30.647C60.39 31.287 60.34 31.887 59.93 32.427C59.68 32.757 59.43 33.087 59.18 33.427C58.97 33.727 58.75 34.017 58.55 34.327C58.28 34.737 58.24 35.187 58.43 35.637C58.58 35.977 58.74 36.317 58.93 36.647C59.16 37.057 59.43 37.447 59.67 37.867C59.87 38.217 60.06 38.587 60.22 38.957C60.39 39.357 60.36 39.777 60.12 40.157C59.93 40.447 59.73 40.737 59.5 41.007C59.18 41.397 58.83 41.757 58.52 42.137C58.31 42.397 58.12 42.667 57.94 42.947C57.75 43.247 57.71 43.587 57.78 43.937C57.82 44.157 57.87 44.377 57.94 44.587C58.14 45.137 58.36 45.677 58.57 46.217C58.72 46.617 58.86 47.017 58.98 47.417C59.12 47.877 59.05 48.327 58.83 48.747C58.7 48.997 58.55 49.247 58.37 49.457C58.11 49.777 57.82 50.077 57.53 50.377C57.21 50.707 56.87 51.007 56.55 51.337C56.32 51.577 56.11 51.837 55.9 52.087C55.71 52.317 55.62 52.597 55.61 52.897C55.59 53.227 55.59 53.567 55.59 53.897C55.59 54.217 55.59 54.527 55.62 54.847C55.69 55.657 55.42 56.357 54.91 56.967C54.84 57.047 54.78 57.137 54.71 57.217C53.9 58.177 52.96 58.997 51.91 59.687C51.35 60.057 50.74 60.317 50.08 60.457C49.32 60.617 48.56 60.727 47.78 60.787C46.85 60.857 45.92 60.897 44.99 60.957C44.89 60.977 44.81 60.997 44.74 61.007Z" stroke="black" stroke-width="2" stroke-miterlimit="10" stroke-linecap="round" stroke-linejoin="round"/>
<path d="M1 34.467C1.03 34.357 1.07 34.247 1.1 34.137C1.31 33.077 2.2 32.287 3.27 32.207C3.38 32.197 3.49 32.197 3.59 32.197C5.9 32.197 8.21 32.197 10.51 32.197C10.74 32.197 10.98 32.217 11.2 32.267C12.26 32.507 13.02 33.457 13.04 34.537C13.04 34.607 13.04 34.687 13.04 34.757C13.04 42.247 13.04 49.737 13.04 57.227C13.04 57.487 13.02 57.747 12.96 57.997C12.69 59.067 11.76 59.767 10.63 59.787C10.22 59.797 9.81 59.787 9.41 59.787C7.47 59.787 5.53 59.787 3.59 59.787C3.22 59.787 2.86 59.747 2.52 59.597C1.76 59.247 1.28 58.667 1.1 57.837C1.08 57.737 1.04 57.647 1.01 57.557C1 49.857 1 42.157 1 34.467Z" stroke="black" stroke-width="2" stroke-miterlimit="10" stroke-linecap="round" stroke-linejoin="round"/>
</svg>
