<svg width="73" height="67" viewBox="0 0 73 67" fill="none" xmlns="http://www.w3.org/2000/svg">
<path d="M61.5514 49.927C55.9041 59.5483 45.4623 66 33.5 66C15.5526 66 1 51.4474 1 33.5C1 15.5526 15.5526 1 33.5 1C51.4474 1 66 15.5526 66 33.5" stroke="black" stroke-width="2" stroke-miterlimit="10" stroke-linecap="round" stroke-linejoin="round"/>
<path d="M33.5 37.7073C35.8237 37.7073 37.7073 35.8236 37.7073 33.5C37.7073 31.1763 35.8237 29.2927 33.5 29.2927C31.1764 29.2927 29.2927 31.1763 29.2927 33.5C29.2927 35.8236 31.1764 37.7073 33.5 37.7073Z" stroke="black" stroke-width="2" stroke-miterlimit="10" stroke-linecap="round" stroke-linejoin="round"/>
<path d="M33.5 29.3007V8.35272" stroke="black" stroke-width="2" stroke-miterlimit="10" stroke-linecap="round" stroke-linejoin="round"/>
<path d="M50.12 42.9362L37.1924 35.5192" stroke="black" stroke-width="2" stroke-miterlimit="10" stroke-linecap="round" stroke-linejoin="round"/>
<path d="M60.6343 29.7834L65.9598 35.1813L71.3496 29.8558" stroke="black" stroke-width="2" stroke-miterlimit="10" stroke-linecap="round" stroke-linejoin="round"/>
</svg>
