<svg width="86" height="84" viewBox="0 0 86 84" fill="none" xmlns="http://www.w3.org/2000/svg">
<path d="M56.9627 15.8338C56.9627 15.8338 55.9153 21.9864 53.5645 22.9562C51.2136 23.9261 45.4257 23.9804 44.3007 23.1114C43.1757 22.2424 42.9042 21.6761 42.9042 21.6761V16.889C50.0653 16.889 53.5955 14.7166 57.7929 15.8416C61.9903 16.9666 76.6696 32.0105 84.8006 34.8191C75.8394 23.7631 71.611 8.99076 60.7722 3.1175C51.5705 -1.86352 48.4205 3.50543 42.8964 3.50543" stroke="black" stroke-width="2" stroke-miterlimit="10" stroke-linecap="round" stroke-linejoin="round"/>
<path d="M55.8765 20.0388C55.8765 20.0388 57.0636 21.8 58.9489 21.8C60.8343 21.8 63.6429 21.7457 64.2946 20.2871" stroke="black" stroke-width="2" stroke-miterlimit="10" stroke-linecap="round" stroke-linejoin="round"/>
<path d="M42.9507 73.8913C69.5549 73.8913 76.6075 30.1018 76.6075 30.1018" stroke="black" stroke-width="2" stroke-miterlimit="10" stroke-linecap="round" stroke-linejoin="round"/>
<path d="M84.7928 34.8115C84.7928 34.8115 80.0368 39.2262 74.086 40.8167" stroke="black" stroke-width="2" stroke-miterlimit="10" stroke-linecap="round" stroke-linejoin="round"/>
<path d="M28.8301 15.8338C28.8301 15.8338 29.8775 21.9864 32.2283 22.9562C34.5792 23.9261 40.3671 23.9804 41.4921 23.1114C42.6171 22.2424 42.8887 21.6761 42.8887 21.6761V16.889C35.7275 16.889 32.1973 14.7166 27.9999 15.8416C23.818 16.9588 9.13101 31.995 1 34.8114C9.95342 23.7631 14.1819 8.99076 25.0206 3.1175C34.2223 -1.86352 37.3723 3.50543 42.8964 3.50543" stroke="black" stroke-width="2" stroke-miterlimit="10" stroke-linecap="round" stroke-linejoin="round"/>
<path d="M29.9163 20.0388C29.9163 20.0388 28.7292 21.8 26.8439 21.8C24.9585 21.8 22.1499 21.7457 21.4982 20.2871" stroke="black" stroke-width="2" stroke-miterlimit="10" stroke-linecap="round" stroke-linejoin="round"/>
<path d="M42.8421 73.8913C16.2379 73.8913 9.18532 30.1018 9.18532 30.1018" stroke="black" stroke-width="2" stroke-miterlimit="10" stroke-linecap="round" stroke-linejoin="round"/>
<path d="M1 34.8115C1 34.8115 5.75602 39.2262 11.7069 40.8167" stroke="black" stroke-width="2" stroke-miterlimit="10" stroke-linecap="round" stroke-linejoin="round"/>
<path d="M42.8964 50.8797C46.2601 50.8797 48.9869 48.1529 48.9869 44.7892C48.9869 41.4255 46.2601 38.6987 42.8964 38.6987C39.5327 38.6987 36.8059 41.4255 36.8059 44.7892C36.8059 48.1529 39.5327 50.8797 42.8964 50.8797Z" stroke="black" stroke-width="2" stroke-miterlimit="10" stroke-linecap="round" stroke-linejoin="round"/>
<path d="M42.8964 83C45.1846 83 47.0395 81.1451 47.0395 78.857C47.0395 76.5688 45.1846 74.7139 42.8964 74.7139C40.6083 74.7139 38.7533 76.5688 38.7533 78.857C38.7533 81.1451 40.6083 83 42.8964 83Z" stroke="black" stroke-width="2" stroke-miterlimit="10" stroke-linecap="round" stroke-linejoin="round"/>
<path d="M42.8964 50.8718V59.0571" stroke="black" stroke-width="2" stroke-miterlimit="10" stroke-linecap="round" stroke-linejoin="round"/>
</svg>
